<?xml version="1.0" encoding="UTF-8" standalone="no"?>
<!-- Created with Inkscape (http://www.inkscape.org/) -->

<svg
   width="120mm"
   height="300mm"
   viewBox="0 0 120 300"
   version="1.1"
   id="svg1"
   inkscape:version="1.4 (e7c3feb1, 2024-10-09)"
   sodipodi:docname="flagshape.svg"
   xml:space="preserve"
   xmlns:inkscape="http://www.inkscape.org/namespaces/inkscape"
   xmlns:sodipodi="http://sodipodi.sourceforge.net/DTD/sodipodi-0.dtd"
   xmlns="http://www.w3.org/2000/svg"
   xmlns:svg="http://www.w3.org/2000/svg"><sodipodi:namedview
     id="namedview1"
     pagecolor="#000000"
     bordercolor="#000000"
     borderopacity="0.25"
     inkscape:showpageshadow="2"
     inkscape:pageopacity="0.0"
     inkscape:pagecheckerboard="0"
     inkscape:deskcolor="#d1d1d1"
     inkscape:document-units="mm"
     inkscape:zoom="0.84776497"
     inkscape:cx="300.79092"
     inkscape:cy="856.36943"
     inkscape:window-width="1656"
     inkscape:window-height="939"
     inkscape:window-x="30"
     inkscape:window-y="25"
     inkscape:window-maximized="0"
     inkscape:current-layer="layer1" /><defs
     id="defs1"><inkscape:path-effect
       effect="fillet_chamfer"
       id="path-effect9"
       is_visible="true"
       lpeversion="1"
       nodesatellites_param="F,0,0,1,0,0,0,1 @ F,0,0,1,0,1.9555878,0,1 @ F,0,0,1,0,0,0,1"
       radius="0"
       unit="px"
       method="auto"
       mode="F"
       chamfer_steps="1"
       flexible="false"
       use_knot_distance="true"
       apply_no_radius="true"
       apply_with_radius="true"
       only_selected="false"
       hide_knots="false" /><inkscape:path-effect
       effect="fillet_chamfer"
       id="path-effect8"
       is_visible="true"
       lpeversion="1"
       nodesatellites_param="F,0,0,1,0,0,0,1 @ F,0,0,1,0,2.654497,0,1 @ F,0,0,1,0,0,0,1 @ F,0,0,1,0,2.8720802,0,1"
       radius="0"
       unit="px"
       method="auto"
       mode="F"
       chamfer_steps="1"
       flexible="false"
       use_knot_distance="true"
       apply_no_radius="true"
       apply_with_radius="true"
       only_selected="false"
       hide_knots="false" /><inkscape:path-effect
       effect="fillet_chamfer"
       id="path-effect6"
       is_visible="true"
       lpeversion="1"
       nodesatellites_param="F,0,0,1,0,0,0,1 @ F,0,0,1,0,1.2336255,0,1 @ F,0,0,1,0,0,0,1"
       radius="0"
       unit="px"
       method="auto"
       mode="F"
       chamfer_steps="1"
       flexible="false"
       use_knot_distance="true"
       apply_no_radius="true"
       apply_with_radius="true"
       only_selected="false"
       hide_knots="false" /><clipPath
       clipPathUnits="userSpaceOnUse"
       id="clipPath3"><rect
         style="fill:#808080;stroke-width:3;stroke-linecap:round"
         id="rect4"
         width="80.759209"
         height="196.48633"
         x="13.043584"
         y="49.676628" /></clipPath><inkscape:path-effect
       effect="fillet_chamfer"
       id="path-effect6-2"
       is_visible="true"
       lpeversion="1"
       nodesatellites_param="F,0,0,1,0,0,0,1 @ F,0,0,1,0,1.2336255,0,1 @ F,0,0,1,0,0,0,1"
       radius="0"
       unit="px"
       method="auto"
       mode="F"
       chamfer_steps="1"
       flexible="false"
       use_knot_distance="true"
       apply_no_radius="true"
       apply_with_radius="true"
       only_selected="false"
       hide_knots="false" /><inkscape:path-effect
       effect="fillet_chamfer"
       id="path-effect8-3"
       is_visible="true"
       lpeversion="1"
       nodesatellites_param="F,0,0,1,0,0,0,1 @ F,0,0,1,0,2.654497,0,1 @ F,0,0,1,0,0,0,1 @ F,0,0,1,0,2.8720802,0,1"
       radius="0"
       unit="px"
       method="auto"
       mode="F"
       chamfer_steps="1"
       flexible="false"
       use_knot_distance="true"
       apply_no_radius="true"
       apply_with_radius="true"
       only_selected="false"
       hide_knots="false" /><inkscape:path-effect
       effect="fillet_chamfer"
       id="path-effect9-7"
       is_visible="true"
       lpeversion="1"
       nodesatellites_param="F,0,0,1,0,0,0,1 @ F,0,0,1,0,1.9555878,0,1 @ F,0,0,1,0,0,0,1"
       radius="0"
       unit="px"
       method="auto"
       mode="F"
       chamfer_steps="1"
       flexible="false"
       use_knot_distance="true"
       apply_no_radius="true"
       apply_with_radius="true"
       only_selected="false"
       hide_knots="false" /><inkscape:path-effect
       effect="fillet_chamfer"
       id="path-effect6-8"
       is_visible="true"
       lpeversion="1"
       nodesatellites_param="F,0,0,1,0,0,0,1 @ F,0,0,1,0,1.2336255,0,1 @ F,0,0,1,0,0,0,1"
       radius="0"
       unit="px"
       method="auto"
       mode="F"
       chamfer_steps="1"
       flexible="false"
       use_knot_distance="true"
       apply_no_radius="true"
       apply_with_radius="true"
       only_selected="false"
       hide_knots="false" /><inkscape:path-effect
       effect="fillet_chamfer"
       id="path-effect8-0"
       is_visible="true"
       lpeversion="1"
       nodesatellites_param="F,0,0,1,0,0,0,1 @ F,0,0,1,0,2.654497,0,1 @ F,0,0,1,0,0,0,1 @ F,0,0,1,0,2.8720802,0,1"
       radius="0"
       unit="px"
       method="auto"
       mode="F"
       chamfer_steps="1"
       flexible="false"
       use_knot_distance="true"
       apply_no_radius="true"
       apply_with_radius="true"
       only_selected="false"
       hide_knots="false" /><inkscape:path-effect
       effect="fillet_chamfer"
       id="path-effect9-6"
       is_visible="true"
       lpeversion="1"
       nodesatellites_param="F,0,0,1,0,0,0,1 @ F,0,0,1,0,1.9555878,0,1 @ F,0,0,1,0,0,0,1"
       radius="0"
       unit="px"
       method="auto"
       mode="F"
       chamfer_steps="1"
       flexible="false"
       use_knot_distance="true"
       apply_no_radius="true"
       apply_with_radius="true"
       only_selected="false"
       hide_knots="false" /></defs><g
     inkscape:label="Layer 1"
     inkscape:groupmode="layer"
     id="layer1"><path
       id="path9"
       style="fill:#ffffff;stroke-width:0.534;stroke-linecap:round"
       d="M 5.5655518 14.153658 L 5.5655518 19.93315 L 8.2470418 19.93315 L 8.2470418 35.195268 L 3.0277222 40.415104 L 3.0277222 217.66527 L 5.5066406 220.14419 L 5.5066406 222.15388 L 8.0878784 224.73512 L 8.0878784 232.53723 L 31.576367 256.02572 L 29.324825 251.09113 L 34.018079 255.78439 L 34.018079 250.73147 L 35.071244 252.68794 L 38.82502 267.9423 L 38.82502 260.58926 L 40.326737 262.4553 L 44.529065 270.26412 L 44.529065 267.6772 L 59.069779 285.74638 L 60.930131 285.74638 L 75.470846 267.67772 L 75.470846 270.26412 L 79.672656 262.45633 L 81.175407 260.58875 L 81.175407 267.9423 L 84.9297 252.68794 L 85.982349 250.73147 L 85.982349 255.78439 L 90.675085 251.09165 L 88.423543 256.02572 L 111.91203 232.53723 L 111.91203 224.73564 L 114.49379 222.15388 L 114.49379 220.14419 L 116.97271 217.66527 L 116.97271 40.415104 L 111.75287 35.195268 L 111.75287 19.93315 L 114.43436 19.93315 L 114.43436 14.153658 L 5.5655518 14.153658 z M 32.140674 242.52215 A 6.4085205 6.4085205 0 0 1 33.373674 244.36648 A 6.4085205 6.4085205 0 0 0 32.140674 242.52215 z M 87.859237 242.52215 A 6.4085205 6.4085205 0 0 0 86.62572 244.36855 A 6.4085205 6.4085205 0 0 1 87.859237 242.52215 z M 86.415397 244.87549 A 6.4085205 6.4085205 0 0 0 85.982349 247.05365 A 6.4085205 6.4085205 0 0 1 86.415397 244.87549 z M 33.58503 244.87756 A 6.4085205 6.4085205 0 0 1 34.018079 247.05365 A 6.4085205 6.4085205 0 0 0 33.58503 244.87756 z M 43.323454 260.04769 A 4.7212104 4.7212104 0 0 1 43.37513 260.10764 A 4.7212104 4.7212104 0 0 0 43.323454 260.04769 z M 43.491919 260.24768 A 4.7212104 4.7212104 0 0 1 43.546179 260.31589 A 4.7212104 4.7212104 0 0 0 43.491919 260.24768 z M 43.836084 260.73654 A 4.7212104 4.7212104 0 0 1 43.875875 260.80475 A 4.7212104 4.7212104 0 0 0 43.836084 260.73654 z M 43.965275 260.96288 A 4.7212104 4.7212104 0 0 1 44.006099 261.0404 A 4.7212104 4.7212104 0 0 0 43.965275 260.96288 z M 44.090849 261.21455 A 4.7212104 4.7212104 0 0 1 44.120304 261.27656 A 4.7212104 4.7212104 0 0 0 44.090849 261.21455 z M 75.944718 261.22126 A 4.7212104 4.7212104 0 0 0 75.790723 261.59282 A 4.7212104 4.7212104 0 0 1 75.944718 261.22126 z M 44.213322 261.50187 A 4.7212104 4.7212104 0 0 1 44.244845 261.58868 A 4.7212104 4.7212104 0 0 0 44.213322 261.50187 z M 44.300655 261.75095 A 4.7212104 4.7212104 0 0 1 44.330627 261.84758 A 4.7212104 4.7212104 0 0 0 44.300655 261.75095 z M 44.377136 262.01501 A 4.7212104 4.7212104 0 0 1 44.39574 262.08633 A 4.7212104 4.7212104 0 0 0 44.377136 262.01501 z M 44.489791 262.59741 A 4.7212104 4.7212104 0 0 1 44.498576 262.67286 A 4.7212104 4.7212104 0 0 0 44.489791 262.59741 z M 44.516146 262.86768 A 4.7212104 4.7212104 0 0 1 44.521313 262.93951 A 4.7212104 4.7212104 0 0 0 44.516146 262.86768 z " /></g></svg>
